:SAMPLES-PER-SECOND 30
:FULLY-SPECIFIED
:DEGREES
342
root  -10.3957 41.434 0.922047 130.489 -82.2522 -131.78
RightUpLeg  -13.2805 4.1728 -2.54399
RightLeg  49.9522 -7.69529 -10.0512
RightFoot  28.3904 -1.87499 5.67889
RightToes  -1.16417e-010 0 -3.6325e-017
Spine  24.6869 -0.0849827 6.35591
Spine1  5.96288 -0.7926 7.66353
HEad  -24.3611 16.9757 -19.8703
LeftShoulder1  3.54256 -11.2289 -17.4483
LeftArm  -15.7952 -27.3289 -46.1171
LeftForeArm  -27.0507 -25.6061 -6.56809
LeftHand  -1.82349 -4.18274 22.1653
RightShoulder  1.44338 7.40474 5.42661
RightArm  -60.7099 48.8548 35.1706
RightForeArm  -17.8139 35.6845 8.13356
RightHand  -0.723095 9.83457 -5.90593
LeftUpLeg  -16.3229 -5.28147 -5.35037
LeftLeg  16.6633 -1.87047 -0.119038
LeftFoot  26.8139 2.91058 -9.04433
LeftToes  6.91183e-011 3.39355e-011 2.1261e-011
343
root  -10.0099 42.2076 1.60999 145.128 -83.7604 -146.844
RightUpLeg  -22.673 2.67006 -4.27037
RightLeg  57.8555 -7.71053 -13.3304
RightFoot  26.7189 -0.845794 3.01138
RightToes  -1.16417e-010 0 -3.6325e-017
Spine  26.4253 -1.0292 7.71179
Spine1  5.67815 -0.838897 5.91786
HEad  -24.3684 18.2569 -24.1122
LeftShoulder1  3.2383 -8.82638 -19.787
LeftArm  -27.1856 -35.7857 -34.4489
LeftForeArm  -23.5861 -37.9102 -9.98477
LeftHand  -1.84799 -3.35199 24.5036
RightShoulder  1.46523 7.74194 5.22075
RightArm  -56.3444 51.1166 33.5191
RightForeArm  -29.6427 11.1922 -0.456007
RightHand  -0.770729 8.01631 -7.04459
LeftUpLeg  -13.8516 -6.77969 -7.2884
LeftLeg  26.7594 0.217583 0.551075
LeftFoot  25.1736 2.50998 -8.03746
LeftToes  6.91183e-011 3.39355e-011 2.1261e-011
344
root  -9.84588 42.4642 2.2756 166.982 -82.3225 -169.039
RightUpLeg  -31.0387 3.21413 -4.15599
RightLeg  61.4683 -5.81986 -11.9472
RightFoot  23.1317 -1.22401 4.47793
RightToes  -1.16417e-010 0 -3.6325e-017
Spine  25.8961 -0.485242 9.81767
Spine1  7.15798 1.01536 2.78376
HEad  -23.6348 18.3733 -26.6316
LeftShoulder1  2.74221 -7.1975 -19.0978
LeftArm  -41.9712 -42.1271 -25.1756
LeftForeArm  -18.8573 -52.3261 -16.1126
LeftHand  -1.60933 -1.66035 26.3446
RightShoulder  1.26611 5.97644 5.59814
RightArm  -41.905 52.5547 34.1856
RightForeArm  -47.4263 -5.47544 -3.23679
RightHand  -0.517897 3.88196 -6.69264
LeftUpLeg  -8.12113 -5.2822 -9.26958
LeftLeg  32.2249 4.52561 3.35018
LeftFoot  21.9182 0.911255 -3.50421
LeftToes  6.91183e-011 3.39355e-011 2.1261e-011
345
root  -10.0385 42.3303 2.8408 -179.592 -79.0283 178.873
RightUpLeg  -38.2818 5.98649 -2.89119
RightLeg  59.9027 -3.15353 -6.45622
RightFoot  23.3084 -2.07992 7.16984
RightToes  -1.16417e-010 0 -3.6325e-017
Spine  23.8537 0.861682 11.692
Spine1  7.21754 3.86591 -1.36913
HEad  -21.726 17.9144 -27.8953
LeftShoulder1  1.90672 -5.27545 -14.7655
LeftArm  -56.1544 -43.5677 -19.5206
LeftForeArm  -7.20296 -67.0561 -29.8976
LeftHand  -1.33867 -0.116334 27.9374
RightShoulder  1.12126 4.50876 6.32676
RightArm  -33.8414 47.5698 37.7335
RightForeArm  -52.9616 -4.30038 0.531765
RightHand  -0.293077 0.916203 -5.52436
LeftUpLeg  -1.33733 -3.65342 -11.0276
LeftLeg  28.3019 6.05613 3.95083
LeftFoot  18.3422 0.0364234 -0.579621
LeftToes  6.91183e-011 3.39355e-011 2.1261e-011
346
root  -10.64 41.7897 3.28326 -171.921 -76.0856 174.684
RightUpLeg  -43.9055 9.30214 -0.948902
RightLeg  54.715 -0.167129 -0.695409
RightFoot  27.3003 -1.83592 5.85838
RightToes  -1.16417e-010 0 -3.6325e-017
Spine  20.9129 1.79287 13.3178
Spine1  3.67655 5.96354 -5.36073
HEad  -19.3459 17.9499 -28.432
LeftShoulder1  0.875467 -1.49625 -10.1509
LeftArm  -67.2931 -41.0564 -15.2436
LeftForeArm  25.7006 -77.1687 -66.3526
LeftHand  -1.21853 0.584389 29.0903
RightShoulder  1.42832 5.35892 8.60918
RightArm  -32.0184 35.9498 40.0352
RightForeArm  -49.5297 -4.54903 1.11854
RightHand  -0.264925 1.10321 -4.87233
LeftUpLeg  3.75452 -1.18017 -12.2614
LeftLeg  19.7501 6.53645 3.30459
LeftFoot  14.4598 -0.157463 0.288784
LeftToes  6.91183e-011 3.39355e-011 2.1261e-011
347
root  -11.3004 40.7785 3.53907 -159.614 -75.3775 165.915
RightUpLeg  -46.112 11.6497 -0.275816
RightLeg  48.9052 1.9509 2.129
RightFoot  29.787 -0.315743 1.37686
RightToes  -1.16417e-010 0 -3.6325e-017
Spine  17.7823 1.85499 12.4015
Spine1  -1.55108 5.66416 -6.56281
HEad  -17.4757 18.6138 -28.6167
LeftShoulder1  0.0094491 3.38668 -7.80095
LeftArm  -76.966 -37.5486 -9.08924
LeftForeArm  75.6207 -76.4377 -119.811
LeftHand  -1.23462 0.695602 30.1441
RightShoulder  2.1413 7.39715 12.6329
RightArm  -32.8191 23.759 39.0118
RightForeArm  -44.2333 -4.72731 0.878239
RightHand  -0.29645 2.07448 -4.78776
LeftUpLeg  7.59197 2.79332 -12.6592
LeftLeg  12.9867 6.89653 2.44111
LeftFoot  9.81582 0.0251496 -0.489641
LeftToes  6.91183e-011 3.39355e-011 2.1261e-011
348
root  -11.7117 39.4871 3.48249 -135.794 -76.8499 143.403
RightUpLeg  -43.6359 12.3905 -1.98639
RightLeg  44.8211 -0.0510802 -0.305218
RightFoot  23.4515 1.03308 -2.86169
RightToes  -1.16417e-010 0 -3.6325e-017
Spine  14.8672 1.08814 7.50935
Spine1  -4.6905 3.12714 -3.96803
HEad  -15.5244 18.238 -27.4302
LeftShoulder1  -0.447104 6.54032 -6.99862
LeftArm  -86.9851 -35.7873 -0.562817
LeftForeArm  96.6014 -71.5665 -140.999
LeftHand  -1.22224 0.821522 30.6424
RightShoulder  2.62331 8.2617 15.5872
RightArm  -32.2504 15.285 37.801
RightForeArm  -40.8263 -4.94002 1.32445
RightHand  -0.31312 1.95203 -5.13596
LeftUpLeg  11.3064 4.29376 -11.638
LeftLeg  11.1006 1.22082 -0.196839
LeftFoot  3.75911 0.294409 -2.48445
LeftToes  6.91183e-011 3.39355e-011 2.1261e-011
349
root  -11.9014 38.0063 3.18741 -105.62 -77.6981 112.579
RightUpLeg  -39.1257 12.7949 -3.7311
RightLeg  44.4206 -6.49004 -7.14813
RightFoot  7.44575 1.06279 -6.12516
RightToes  -1.16417e-010 0 -3.6325e-017
Spine  12.3812 0.319198 2.41813
Spine1  -4.08824 0.912353 -1.38762
HEad  -12.9995 14.4833 -23.8443
LeftShoulder1  -0.475097 7.18987 -4.92222
LeftArm  -96.198 -38.0717 6.76207
LeftForeArm  104.056 -70.3702 -144.114
LeftHand  -1.15849 1.01937 30.3686
RightShoulder  2.459 7.52367 15.547
RightArm  -31.2643 8.82735 38.852
RightForeArm  -39.2629 -5.08796 1.82997
RightHand  -0.349648 1.18309 -6.31232
LeftUpLeg  13.6818 4.25569 -8.96011
LeftLeg  14.2564 -15.6592 -3.99393
LeftFoot  -4.87022 0.247019 -3.35714
LeftToes  6.91183e-011 3.39355e-011 2.1261e-011
350
root  -11.9661 36.6262 2.95052 -90.1834 -77.5652 95.589
RightUpLeg  -36.5556 13.5664 -3.26285
RightLeg  47.9128 -11.477 -13.5749
RightFoot  -7.71837 0.230018 -8.40426
RightToes  -1.16417e-010 0 -3.6325e-017
Spine  10.776 0.758509 2.02
Spine1  -0.752412 1.48566 -3.52623
HEad  -11.8651 7.55696 -19.4011
LeftShoulder1  -0.355787 7.18248 -1.36671
LeftArm  -102.86 -44.5137 10.5863
LeftForeArm  106.162 -72.4038 -139.793
LeftHand  -1.28944 0.421239 29.7945
RightShoulder  2.14285 6.27373 15.158
RightArm  -30.6249 3.23883 40.2237
RightForeArm  -40.3241 -5.09049 2.0801
RightHand  -0.413754 0.687736 -7.98722
LeftUpLeg  14.6118 -0.662457 -8.52291
LeftLeg  19.7794 -24.7876 -7.1325
LeftFoot  -15.3207 0.06536 -0.997027
LeftToes  6.91183e-011 3.39355e-011 2.1261e-011
351
root  -11.8803 36.0743 2.75142 -89.7925 -78.1985 93.3117
RightUpLeg  -35.8176 12.5595 -1.54235
RightLeg  50.8013 -11.2384 -14.6599
RightFoot  -12.0935 -0.128793 -10.0915
RightToes  -1.16417e-010 0 -3.6325e-017
Spine  10.3546 1.77776 4.52853
Spine1  3.43217 3.66877 -8.10445
HEad  -13.502 1.33082 -16.6876
LeftShoulder1  -0.274298 7.01079 0.760682
LeftArm  -103.758 -51.1927 9.81831
LeftForeArm  106.168 -74.3667 -134.374
LeftHand  -1.49796 -0.671615 28.3936
RightShoulder  2.05041 5.60976 15.7817
RightArm  -31.7474 1.16504 41.0171
RightForeArm  -41.3067 -4.93147 1.38347
RightHand  -0.486204 0.797174 -9.23015
LeftUpLeg  15.4972 -8.11596 -11.2373
LeftLeg  23.0865 -15.8847 -6.03505
LeftFoot  -20.9577 0.122598 0.220547
LeftToes  6.91183e-011 3.39355e-011 2.1261e-011
